:FULLY-SPECIFIED
:FORCE-ALL-JOINTS-BE-3DOF
:DEGREES
170
root 6.50447 16.0889 -25.6604 3.86113 29.309 1.46691
lfemur -26.2494 31.2842 -16.4162
ltibia 42.3558 0 0
lfoot -8.75638 9.17912 0
ltoes 8.68214 0 0
rfemur -19.8076 -2.9782 -5.3343
rtibia 58.4873 0 0
rfoot 6.88769 -26.1229 0
rtoes 42.4459 0 0
lowerback 1.26746 -4.69527 -1.22186
upperback 0.0407578 -6.29083 -2.58832
thorax -0.823277 -3.1418 -1.83926
lowerneck -9.40754 -7.50199 -1.47526
upperneck 1.72605 -10.0805 5.30782
head 2.56107 -4.85841 1.42667
lclavicle -8.45471e-14 3.33355e-15 0
lhumerus -50.0531 -41.5759 115.74
lradius 52.3075 0 0
lwrist 15.4404 0 0
lhand 37.3278 28.7829 0
lfingers 7.12502 0 0
lthumb 60.1437 42.397 0
rclavicle -8.45471e-14 3.33355e-15 0
rhumerus -48.4605 -12.6475 -80.9396
rradius 89.147 0 0
rwrist -3.02717 0 0
rhand -44.4258 -52.7721 0
rfingers 7.12502 0 0
rthumb -17.2175 -442.435 0
171
root 6.44361 16.0916 -25.6372 3.96532 28.558 1.4428
lfemur -25.9416 30.1221 -14.8969
ltibia 42.5638 0 0
lfoot -10.1467 6.59657 0
ltoes 2.83576 0 0
rfemur -18.7416 -3.00089 -5.42985
rtibia 55.8302 0 0
rfoot 4.72537 -26.5336 0
rtoes 42.5614 0 0
lowerback 0.940589 -4.33629 -1.00942
upperback 0.0232355 -5.80378 -2.87662
thorax -0.691834 -2.89946 -2.28509
lowerneck -9.43377 -7.55801 -1.15387
upperneck 1.81702 -10.1985 5.33019
head 2.5813 -4.91053 1.36985
lclavicle -5.75154e-14 3.1226e-15 0
lhumerus -50.5624 -41.8475 115.9
lradius 52.2664 0 0
lwrist 15.3292 0 0
lhand 37.6827 28.7982 0
lfingers 7.12502 0 0
lthumb 60.4441 42.0739 0
rclavicle -5.75154e-14 3.1226e-15 0
rhumerus -48.6847 -10.084 -82.4963
rradius 89.3877 0 0
rwrist -2.11745 0 0
rhand -43.306 -50.2372 0
rfingers 7.12502 0 0
rthumb -16.123 -440.191 0
172
root 6.3785 16.0972 -25.6126 4.0584 27.7576 1.37394
lfemur -25.5011 28.6949 -13.1017
ltibia 42.6442 0 0
lfoot -11.7528 3.54492 0
ltoes -3.35526 0 0
rfemur -17.8469 -3.30497 -5.41819
rtibia 53.3536 0 0
rfoot 2.28516 -26.9551 0
rtoes 42.6752 0 0
lowerback 0.603062 -3.98126 -0.795942
upperback 0.0072689 -5.32226 -3.17587
thorax -0.545697 -2.6596 -2.74203
lowerneck -9.48901 -7.58653 -0.785585
upperneck 1.94207 -10.2874 5.36217
head 2.61483 -4.94622 1.30872
lclavicle -2.25593e-14 2.73546e-15 0
lhumerus -51.0784 -42.1632 115.985
lradius 52.184 0 0
lwrist 15.0881 0 0
lhand 38.1066 28.6107 0
lfingers 7.12502 0 0
lthumb 60.8031 41.4822 0
rclavicle -2.25593e-14 2.73546e-15 0
rhumerus -49.0922 -7.2066 -84.1757
rradius 89.8821 0 0
rwrist -1.63217 0 0
rhand -40.3997 -46.1475 0
rfingers 7.12502 0 0
rthumb -13.3087 -436.338 0
173
root 6.31031 16.1034 -25.5872 4.15037 26.908 1.29015
lfemur -24.9176 27.0244 -11.1509
ltibia 42.5197 0 0
lfoot -13.3574 0.22962 0
ltoes -9.04985 0 0
rfemur -17.1074 -3.78083 -5.35391
rtibia 51.079 0 0
rfoot -0.300606 -27.2728 0
rtoes 42.7719 0 0
lowerback 0.260452 -3.64075 -0.598088
upperback -0.00785138 -4.85988 -3.47881
thorax -0.38985 -2.42902 -3.19295
lowerneck -9.57355 -7.58133 -0.39482
upperneck 2.08603 -10.3354 5.39654
head 2.65786 -4.96045 1.24599
lclavicle 1.53635e-14 2.35991e-15 0
lhumerus -51.579 -42.4848 116.003
lradius 52.0902 0 0
lwrist 14.823 0 0
lhand 38.5368 28.3377 0
lfingers 7.12502 0 0
lthumb 61.1674 40.799 0
rclavicle 1.53635e-14 2.35991e-15 0
rhumerus -49.6512 -4.10899 -85.8714
rradius 90.6276 0 0
rwrist -1.44333 0 0
rhand -36.2237 -41.1424 0
rfingers 7.12502 0 0
rthumb -9.27501 -431.481 0
